<?xml version="1.0" encoding="UTF-8" standalone="no"?>
<!-- Created with Inkscape (http://www.inkscape.org/) -->

<svg
   width="208.54585mm"
   height="161.69431mm"
   viewBox="0 0 208.54585 161.69431"
   version="1.1"
   id="svg1"
   inkscape:export-filename="CN.svg"
   inkscape:export-xdpi="96"
   inkscape:export-ydpi="96"
   inkscape:version="1.3.2 (091e20e, 2023-11-25, custom)"
   sodipodi:docname="Logo1.svg"
   xmlns:inkscape="http://www.inkscape.org/namespaces/inkscape"
   xmlns:sodipodi="http://sodipodi.sourceforge.net/DTD/sodipodi-0.dtd"
   xmlns:xlink="http://www.w3.org/1999/xlink"
   xmlns="http://www.w3.org/2000/svg"
   xmlns:svg="http://www.w3.org/2000/svg">
  <sodipodi:namedview
     id="namedview1"
     pagecolor="#505050"
     bordercolor="#eeeeee"
     borderopacity="1"
     inkscape:showpageshadow="0"
     inkscape:pageopacity="0"
     inkscape:pagecheckerboard="0"
     inkscape:deskcolor="#505050"
     inkscape:document-units="mm"
     inkscape:zoom="1.0544998"
     inkscape:cx="323.85024"
     inkscape:cy="472.26184"
     inkscape:window-width="1920"
     inkscape:window-height="1080"
     inkscape:window-x="-9"
     inkscape:window-y="-9"
     inkscape:window-maximized="1"
     inkscape:current-layer="layer1" />
  <defs
     id="defs1">
    <linearGradient
       id="linearGradient31"
       inkscape:collect="always">
      <stop
         style="stop-color:#0c6a6b;stop-opacity:1;"
         offset="0"
         id="stop32" />
      <stop
         style="stop-color:#0c6a6b;stop-opacity:0;"
         offset="1"
         id="stop33" />
    </linearGradient>
    <linearGradient
       id="swatch14"
       inkscape:swatch="solid">
      <stop
         style="stop-color:#1bd3f1;stop-opacity:1;"
         offset="0"
         id="stop15" />
    </linearGradient>
    <linearGradient
       inkscape:collect="always"
       xlink:href="#linearGradient31"
       id="linearGradient33"
       x1="33.65192"
       y1="150.3952"
       x2="196.94022"
       y2="150.3952"
       gradientUnits="userSpaceOnUse"
       gradientTransform="matrix(1.2771637,0,0,1.2771637,-42.447059,-32.669945)" />
  </defs>
  <g
     inkscape:label="Layer 1"
     inkscape:groupmode="layer"
     id="layer1"
     transform="translate(-0.53195472,-78.5622)">
    <path
       id="path1"
       style="fill:#11cae8;fill-opacity:1;stroke:url(#linearGradient33);stroke-width:1.27716;stroke-linecap:square;stroke-linejoin:bevel;stroke-dasharray:none;stroke-dashoffset:0;stroke-opacity:1;paint-order:normal"
       d="M 81.510774,79.200784 A 80.340379,80.208581 0 0 0 1.1705348,159.40903 80.340379,80.208581 0 0 0 81.510774,239.61792 80.340379,80.208581 0 0 0 142.92177,210.92211 l -7.21372,-7.21372 h -20.74158 a 56.239268,55.117686 0 0 1 -33.455696,10.8186 56.239268,55.117686 0 0 1 -56.23929,-55.11796 56.239268,55.117686 0 0 1 56.23929,-55.1173 56.239268,55.117686 0 0 1 33.124376,10.81859 h 16.46483 l 9.66692,-9.66691 A 80.340379,80.208581 0 0 0 81.510774,79.200784 Z M 181.61845,91.905641 v 68.407569 l -40.13943,-38.00435 -0.26268,0.24882 h -26.32182 v 74.07493 h 26.82078 v -38.18717 l 39.90315,37.78062 v 0.40721 h 26.82078 V 91.905641 Z" />
  </g>
</svg>
